<?xml version="1.0" standalone="no"?>
<!DOCTYPE svg PUBLIC "-//W3C//DTD SVG 20010904//EN"
 "http://www.w3.org/TR/2001/REC-SVG-20010904/DTD/svg10.dtd">
<svg version="1.0" xmlns="http://www.w3.org/2000/svg"
 width="921.000000pt" height="344.000000pt" viewBox="0 0 921.000000 344.000000"
 preserveAspectRatio="xMidYMid meet">

<g transform="translate(0.000000,344.000000) scale(0.100000,-0.100000)"
fill="#000000" stroke="none">
<path d="M0 1720 l0 -1720 4605 0 4605 0 0 1720 0 1720 -4605 0 -4605 0 0
-1720z m2790 1114 c-14 -35 -6 -44 43 -45 52 -1 112 -21 112 -39 0 -16 -76
-46 -142 -55 -48 -6 -54 -10 -76 -48 -22 -37 -25 -57 -29 -177 -6 -146 -23
-214 -72 -287 -14 -21 -26 -49 -26 -64 0 -14 -16 -90 -36 -169 -19 -78 -45
-212 -58 -296 -13 -85 -26 -157 -30 -161 -3 -4 -15 -7 -26 -8 -24 -2 -25 7 -6
146 24 171 30 285 16 294 -6 4 -16 3 -21 -2 -5 -5 -19 -101 -30 -214 -11 -112
-22 -210 -24 -216 -3 -7 -14 -13 -26 -13 -21 0 -22 3 -15 78 14 160 19 382 9
382 -5 0 -22 -14 -38 -30 -16 -17 -50 -37 -75 -44 -30 -8 -49 -21 -57 -37 -69
-141 -65 -125 -61 -241 l3 -108 -27 0 c-16 0 -28 4 -28 9 0 5 -4 53 -10 107
-5 55 -14 177 -20 272 -13 221 -7 248 64 304 28 22 66 58 85 79 39 47 66 62
145 83 101 26 144 82 211 273 24 69 52 135 63 146 18 17 18 22 6 46 -12 23
-12 26 2 29 9 2 36 -4 61 -13 42 -16 45 -16 66 1 12 11 26 25 30 32 15 23 27
13 17 -14z m1663 -123 c35 -16 94 -46 132 -68 86 -50 287 -172 294 -178 2 -3
-57 -2 -132 2 -121 5 -137 4 -137 -10 0 -8 14 -21 30 -29 36 -15 38 -26 8 -37
-19 -7 -7 -15 78 -55 54 -27 122 -52 149 -57 38 -6 24 -7 -60 -4 -92 3 -124 8
-194 34 -47 17 -94 31 -105 31 -15 -1 -33 -21 -64 -75 -24 -42 -56 -88 -71
-103 -15 -15 -46 -66 -69 -114 -76 -156 -185 -224 -362 -222 -67 0 -107 5
-135 18 -153 66 -245 218 -233 383 18 229 182 387 401 386 57 0 79 -6 143 -38
42 -20 94 -55 116 -77 50 -50 94 -145 103 -221 3 -31 10 -55 14 -52 5 2 19 37
31 76 13 41 37 88 54 107 33 38 35 33 -29 76 -18 13 -15 14 35 19 30 4 89 10
130 15 l75 8 -57 27 c-39 18 -56 31 -52 41 3 8 -4 16 -19 20 -28 7 -150 87
-187 122 l-24 24 37 -11 c21 -5 66 -23 100 -38z m2688 -681 c-3 -59 11 -65 54
-22 26 25 27 25 16 4 -7 -13 -25 -31 -41 -40 -23 -13 -29 -25 -34 -65 -3 -27
-10 -55 -16 -62 -8 -10 -5 -30 10 -76 12 -34 19 -71 17 -81 -5 -17 52 -78 73
-78 14 0 11 59 -5 105 -16 43 -11 60 10 32 12 -17 14 -15 34 16 12 19 21 40
21 46 0 7 12 24 28 39 22 22 28 39 33 92 l6 65 1 -71 c2 -66 0 -73 -23 -88
-14 -9 -25 -24 -25 -33 0 -9 -11 -36 -25 -60 -22 -37 -25 -53 -23 -113 l3 -71
34 25 c19 14 43 38 53 53 12 19 18 23 18 12 0 -25 -38 -68 -81 -89 -51 -27
-51 -48 6 -135 25 -39 45 -80 45 -93 0 -13 5 -33 11 -44 14 -26 -2 -38 -49
-38 -25 0 -35 5 -42 25 -5 13 -23 31 -40 40 -16 8 -30 19 -30 23 0 4 -29 25
-64 45 -35 21 -70 44 -76 52 -18 22 -39 18 -49 -8 -5 -12 -12 -63 -16 -112 -8
-92 -34 -183 -61 -210 -13 -13 -84 -22 -84 -11 0 2 16 27 35 56 19 29 35 59
35 69 0 14 -59 210 -67 220 -2 3 -14 -6 -28 -19 -22 -20 -31 -22 -89 -18 -43
4 -87 16 -130 36 l-64 30 -39 -46 c-69 -85 -66 -74 -44 -136 11 -30 29 -69 41
-86 l21 -30 -40 0 c-49 0 -53 6 -76 128 -10 50 -21 92 -24 92 -4 0 -22 -14
-39 -31 -36 -35 -40 -62 -17 -116 20 -48 19 -55 -11 -51 -35 4 -54 59 -54 160
0 74 1 77 32 102 l32 25 -27 66 c-33 81 -36 155 -7 203 13 20 28 32 42 32 12
0 37 14 55 32 29 28 42 33 96 36 52 3 76 -2 147 -29 81 -31 92 -32 225 -33
126 -1 142 1 156 18 15 19 16 18 22 -13 7 -31 51 -79 89 -93 22 -9 23 3 3 68
-8 27 -15 57 -15 67 0 26 -25 76 -55 111 -30 34 -28 26 -10 67 l16 34 -6 -37
c-5 -32 -1 -44 32 -88 45 -61 49 -56 58 73 7 92 21 115 16 27z m-171 -214 c0
-6 -13 3 -30 19 -16 16 -30 36 -30 44 0 16 59 -46 60 -63z m600 -116 c0 -5
-13 -16 -30 -25 -25 -13 -30 -22 -30 -51 0 -28 -8 -44 -44 -79 -41 -40 -48
-43 -84 -38 -37 5 -41 3 -56 -26 -9 -17 -21 -31 -27 -31 -5 0 -2 14 6 30 18
34 52 52 85 43 30 -8 110 70 110 108 0 19 10 35 33 53 36 29 37 30 37 16z
m-3178 -292 c6 -8 7 -152 4 -340 -4 -214 -2 -329 4 -333 6 -4 23 8 38 26 15
18 50 58 78 88 28 31 94 109 148 174 l97 117 70 0 70 0 -61 -77 c-33 -43 -87
-109 -120 -148 -95 -111 -95 -97 2 -216 46 -57 115 -144 152 -194 38 -49 70
-91 71 -93 6 -7 313 382 579 733 151 199 205 248 298 269 27 6 26 5 -20 -58
-26 -35 -80 -110 -121 -167 -41 -57 -113 -153 -160 -214 -196 -253 -273 -352
-303 -393 -18 -24 -60 -69 -94 -101 -81 -76 -138 -92 -267 -75 -46 7 -47 8
-169 165 -68 87 -127 158 -131 159 -9 0 -110 -107 -144 -153 -19 -25 -23 -44
-23 -104 l0 -73 -49 0 c-42 0 -49 3 -55 22 -3 13 -6 245 -6 517 l0 494 52 -6
c28 -4 56 -12 60 -19z m-1682 -38 l0 -50 -420 0 -420 0 0 28 c0 15 -3 37 -6
50 l-6 22 426 0 426 0 0 -50z m2904 42 c-89 -78 -129 -97 -229 -108 -97 -10
-198 10 -320 62 -61 26 -112 48 -114 50 -2 2 148 4 334 4 187 0 335 -4 329 -8z
m1417 -151 c-6 -11 -17 -46 -24 -78 -11 -47 -18 -59 -35 -61 -22 -3 -30 12
-13 22 4 3 16 27 26 53 20 53 45 96 52 89 3 -2 0 -13 -6 -25z m-3959 -107 c63
-20 140 -91 166 -151 18 -43 21 -75 26 -283 l5 -235 26 -18 c15 -11 25 -28 25
-43 0 -23 -3 -24 -70 -24 l-70 0 -12 45 c-14 52 -25 55 -59 19 -68 -74 -240
-99 -344 -50 -59 28 -108 76 -129 128 -20 46 -21 148 -2 191 17 42 66 83 114
97 49 13 306 13 355 -1 22 -6 41 -8 44 -5 3 3 2 35 -2 72 -6 56 -12 72 -42
104 -41 46 -87 63 -164 63 -67 -1 -113 -22 -155 -70 l-31 -36 -52 29 c-28 16
-51 34 -51 39 0 18 83 92 127 114 83 41 196 47 295 15z m-1291 -17 c30 -15 70
-40 89 -56 l35 -29 -24 -44 c-13 -23 -25 -44 -27 -46 -4 -6 -64 28 -64 36 0
13 -69 42 -122 52 -135 26 -251 -64 -192 -148 24 -35 65 -51 171 -67 124 -19
162 -30 203 -58 62 -41 75 -70 75 -157 0 -71 -3 -82 -30 -122 -19 -26 -52 -55
-85 -73 -53 -29 -59 -30 -185 -30 -121 0 -134 2 -186 27 -30 15 -75 46 -99 68
l-44 40 30 31 c50 53 59 54 102 11 49 -49 115 -72 204 -72 120 0 178 40 178
123 0 65 -35 81 -235 107 -106 13 -181 51 -208 104 -31 58 -28 146 6 213 47
91 119 124 263 120 75 -2 99 -7 145 -30z m2181 8 c42 -15 148 -96 148 -113 0
-4 -15 -25 -34 -47 l-34 -40 -42 39 c-56 50 -97 66 -173 66 -149 0 -267 -121
-267 -274 0 -86 24 -140 92 -202 109 -99 243 -101 350 -6 l49 45 40 -39 40
-39 -51 -47 c-81 -75 -126 -92 -250 -92 -94 -1 -111 2 -162 26 -166 78 -254
249 -219 430 20 99 94 207 179 260 91 56 228 70 334 33z m2490 -27 c74 -34
152 -112 186 -186 24 -50 27 -69 27 -162 0 -96 -3 -110 -29 -161 -73 -146
-230 -230 -400 -216 -220 19 -382 233 -337 448 16 77 48 136 108 196 89 89
155 114 293 110 79 -2 105 -7 152 -29z m853 3 c232 -102 299 -415 131 -608
-24 -27 -65 -56 -114 -80 -73 -37 -80 -38 -182 -38 -95 0 -110 3 -162 28 -77
38 -145 107 -182 187 -26 57 -30 76 -30 150 0 71 4 95 27 143 53 116 148 198
267 232 72 20 183 14 245 -14z m-5009 9 l34 0 0 -365 0 -365 -50 0 -50 0 0
371 c0 334 2 371 16 365 9 -3 31 -6 50 -6z m3522 -672 l3 -58 -306 0 -307 0
30 38 c42 52 63 70 92 74 14 3 129 4 255 4 l230 -1 3 -57z"/>
<path d="M3881 2558 c-48 -13 -130 -68 -168 -111 -102 -116 -121 -290 -46
-410 34 -54 102 -117 148 -138 22 -10 75 -21 118 -25 83 -7 86 -6 237 70 83
42 130 145 130 286 0 96 -24 156 -90 222 -46 46 -65 58 -89 58 -21 0 -31 5
-31 16 0 36 -127 56 -209 32z m106 -54 c20 -6 22 -11 16 -49 l-5 -43 58 -12
c62 -13 114 -53 114 -87 0 -11 -13 -37 -29 -58 l-29 -39 29 -34 c34 -39 37
-74 9 -120 -24 -39 -54 -52 -121 -52 -45 0 -49 -2 -49 -24 0 -41 -11 -56 -39
-56 -25 0 -26 2 -22 46 4 54 -6 64 -66 64 -46 0 -81 24 -64 44 6 6 14 30 20
51 5 22 21 83 34 135 25 96 23 130 -7 130 -8 0 -19 7 -27 16 -11 14 -6 15 56
12 l70 -3 9 43 c9 45 9 45 43 36z"/>
<path d="M3962 2309 c3 -63 3 -64 34 -67 38 -4 84 30 84 62 0 32 -31 57 -80
63 l-41 6 3 -64z"/>
<path d="M3920 2185 c-14 -36 -13 -90 3 -103 6 -5 33 -13 58 -17 39 -6 49 -4
72 17 62 55 29 105 -80 123 -40 6 -44 5 -53 -20z"/>
<path d="M6274 1665 c2 -46 11 -86 25 -118 31 -67 39 -51 11 22 -12 33 -26 84
-30 113 -9 52 -9 52 -6 -17z"/>
<path d="M7100 1674 c27 -39 90 -104 100 -104 22 0 7 19 -52 71 -34 30 -56 45
-48 33z"/>
<path d="M7150 1485 c-10 -13 -9 -15 9 -15 12 0 21 6 21 15 0 8 -4 15 -9 15
-5 0 -14 -7 -21 -15z"/>
<path d="M2870 751 c-92 -15 -152 -74 -136 -134 9 -38 55 -88 101 -108 65 -30
120 -25 213 21 44 22 85 40 91 40 7 0 11 29 11 79 l0 79 -32 11 c-42 15 -190
22 -248 12z"/>
<path d="M6207 1026 c-88 -32 -169 -117 -183 -193 -10 -52 2 -135 25 -181 26
-51 99 -115 149 -130 136 -41 268 19 325 147 25 58 20 167 -11 227 -29 56 -95
111 -156 129 -61 18 -99 18 -149 1z"/>
<path d="M7079 1029 c-19 -6 -57 -27 -84 -47 -182 -137 -116 -429 106 -473
183 -36 348 151 295 333 -38 132 -191 222 -317 187z"/>
</g>
</svg>
